<svg width="186" height="80" viewBox="0 0 186 80" fill="none" xmlns="http://www.w3.org/2000/svg">
<rect width="185.639" height="80" fill="#663BFA"/>
<path fill-rule="evenodd" clip-rule="evenodd" d="M25.5895 31.1486H31.7234C37.011 31.1486 41.3128 35.4505 41.3128 40.7381C41.3128 46.0257 37.011 50.3276 31.7234 50.3276H25.5895C20.3019 50.3276 16 46.0257 16 40.7381V24H19.8656V33.0497C21.4643 31.8555 23.4454 31.1486 25.5895 31.1486ZM25.5895 46.462H31.7234C34.8794 46.462 37.4472 43.8941 37.4472 40.7381C37.4472 37.5821 34.8794 35.0142 31.7234 35.0142H25.5895C22.4335 35.0142 19.8656 37.5821 19.8656 40.7381C19.8656 43.8941 22.4335 46.462 25.5895 46.462ZM71.1126 24H74.9782V31.1334H82.7467V34.999H74.9782V42.4196C74.9782 44.6368 76.7812 46.4413 78.9984 46.4413H82.7467V50.3069H78.9984C74.651 50.3069 71.1126 46.7685 71.1126 42.4196V24ZM111.504 50.0735V39.0027C111.504 34.6553 115.042 31.1169 119.391 31.1169H123.954V34.9825H119.391C117.174 34.9825 115.37 36.7855 115.37 39.0027V50.0735H111.504ZM130.613 31.3212H126.747V50.0735H130.613V31.3212ZM126.747 25.705H130.613V29.1054H126.747V25.705ZM105.046 33.0828C103.435 31.8569 101.426 31.1265 99.2501 31.1265H93.1162C87.8286 31.1265 83.5267 35.4284 83.5267 40.716C83.5267 46.0036 87.8286 50.3055 93.1162 50.3055H99.2501C101.426 50.3055 103.435 49.5752 105.046 48.3492V50.1108H108.911V31.3212H105.046V33.0828ZM99.2501 46.4399H93.1162C89.9602 46.4399 87.3923 43.872 87.3923 40.716C87.3923 37.56 89.9602 34.9921 93.1162 34.9921H99.2501C102.406 34.9921 104.974 37.56 104.974 40.716C104.974 43.872 102.406 46.4399 99.2501 46.4399ZM160.049 31.1238H142.78C137.492 31.1238 133.19 35.4256 133.19 40.7132C133.19 46.0009 137.492 50.3027 142.78 50.3027H160.049C165.337 50.3027 169.639 46.0009 169.639 40.7132C169.639 35.4256 165.337 31.1238 160.049 31.1238ZM160.049 46.4371H160.005C160.959 44.4629 162.973 43.1141 165.26 43.0796C164.358 45.0579 162.362 46.4371 160.049 46.4371ZM159.95 34.9894C159.004 37.0409 156.914 38.4519 154.571 38.4574C155.359 36.6419 157.038 35.2986 159.055 34.9894H159.95ZM154.556 41.7721C156.78 41.7721 158.93 40.9714 160.608 39.5163C161.745 38.5306 162.617 37.2908 163.16 35.913C164.479 36.7717 165.425 38.1578 165.694 39.7717C165.58 39.7676 165.465 39.7648 165.351 39.7648C161.475 39.7648 158.079 42.1932 156.729 45.6764C155.401 44.7984 154.451 43.3957 154.175 41.7652C154.302 41.7708 154.43 41.7735 154.559 41.7735L154.556 41.7721ZM137.056 40.7132C137.056 37.5573 139.624 34.9894 142.78 34.9894H152.667C151.399 36.5812 150.638 38.5941 150.638 40.7823C150.638 42.9705 151.354 44.8674 152.558 46.4371H142.78C139.624 46.4371 137.056 43.8692 137.056 40.7132ZM62.738 31.1155C65.9092 31.1155 68.4895 33.6958 68.4895 36.867L68.4881 36.8642C68.4881 40.0354 65.9078 42.6157 62.7366 42.6157H47.0174C47.103 44.757 48.8715 46.4744 51.0349 46.4744H67.8033V50.34H51.0349C46.686 50.34 43.1476 46.803 43.1476 42.4542V39.0013C43.1476 34.6539 46.686 31.1155 51.0349 31.1155H62.738ZM62.7394 34.9811H51.0362V34.9825C48.9033 34.9825 47.1541 36.6516 47.0243 38.7528H62.7394C63.7789 38.7528 64.6252 37.9065 64.6252 36.867C64.6252 35.8274 63.7789 34.9811 62.7394 34.9811Z" fill="white"/>
</svg>
