<svg width="94" height="30" viewBox="0 0 94 30" fill="none" xmlns="http://www.w3.org/2000/svg">
<rect width="93.3265" height="30" fill="#663BFA"/>
<path fill-rule="evenodd" clip-rule="evenodd" d="M5.82504 10.3424H9.55102C12.7629 10.3424 15.3761 12.9555 15.3761 16.1674C15.3761 19.3793 12.7629 21.9924 9.55102 21.9924H5.82504C2.61313 21.9924 0 19.3793 0 16.1674V6H2.34813V11.4971C3.31925 10.7717 4.52267 10.3424 5.82504 10.3424ZM5.82504 19.6443H9.55102C11.4681 19.6443 13.0279 18.0845 13.0279 16.1674C13.0279 14.2503 11.4681 12.6905 9.55102 12.6905H5.82504C3.90796 12.6905 2.34813 14.2503 2.34813 16.1674C2.34813 18.0845 3.90796 19.6443 5.82504 19.6443ZM33.4776 6H35.8258V10.3331H40.5447V12.6813H35.8258V17.1888C35.8258 18.5357 36.921 19.6317 38.2678 19.6317H40.5447V21.9799H38.2678C35.627 21.9799 33.4776 19.8305 33.4776 17.1888V6ZM58.0131 21.8381V15.1133C58.0131 12.4725 60.1625 10.3231 62.8041 10.3231H65.5758V12.6712H62.8041C61.4573 12.6712 60.3612 13.7664 60.3612 15.1133V21.8381H58.0131ZM69.6204 10.4472H67.2723V21.8381H69.6204V10.4472ZM67.2723 7.03569H69.6204V9.10121H67.2723V7.03569ZM54.09 11.5173C53.1114 10.7726 51.8912 10.3289 50.5695 10.3289H46.8435C43.6316 10.3289 41.0185 12.9421 41.0185 16.154C41.0185 19.3659 43.6316 21.979 46.8435 21.979H50.5695C51.8912 21.979 53.1114 21.5354 54.09 20.7907V21.8608H56.4382V10.4472H54.09V11.5173ZM50.5695 19.6309H46.8435C44.9265 19.6309 43.3666 18.0711 43.3666 16.154C43.3666 14.2369 44.9265 12.6771 46.8435 12.6771H50.5695C52.4866 12.6771 54.0464 14.2369 54.0464 16.154C54.0464 18.0711 52.4866 19.6309 50.5695 19.6309ZM87.5014 10.3273H77.0112C73.7992 10.3273 71.1861 12.9404 71.1861 16.1523C71.1861 19.3642 73.7992 21.9774 77.0112 21.9774H87.5014C90.7133 21.9774 93.3265 19.3642 93.3265 16.1523C93.3265 12.9404 90.7133 10.3273 87.5014 10.3273ZM87.5014 19.6292H87.4746C88.0541 18.43 89.2776 17.6107 90.6664 17.5897C90.1188 18.7914 88.9061 19.6292 87.5014 19.6292ZM87.4411 12.6754C86.8666 13.9216 85.5969 14.7787 84.1738 14.782C84.6526 13.6792 85.6724 12.8633 86.8976 12.6754H87.4411ZM84.1646 16.7955C85.5156 16.7955 86.8213 16.3091 87.8411 15.4252C88.5312 14.8265 89.0613 14.0734 89.3908 13.2364C90.1926 13.7581 90.767 14.6 90.9305 15.5804C90.8609 15.5779 90.7913 15.5762 90.7217 15.5762C88.3677 15.5762 86.3047 17.0513 85.4846 19.1671C84.6778 18.6338 84.1008 17.7817 83.9331 16.7913C84.0103 16.7947 84.0883 16.7964 84.1662 16.7964L84.1646 16.7955ZM73.5342 16.1523C73.5342 14.2352 75.0941 12.6754 77.0112 12.6754H83.0173C82.2467 13.6423 81.7846 14.865 81.7846 16.1942C81.7846 17.5235 82.2198 18.6757 82.9511 19.6292H77.0112C75.0941 19.6292 73.5342 18.0694 73.5342 16.1523ZM28.3906 10.3222C30.3169 10.3222 31.8843 11.8896 31.8843 13.8159L31.8834 13.8142C31.8834 15.7406 30.316 17.3079 28.3897 17.3079H18.8412C18.8932 18.6086 19.9675 19.6519 21.2816 19.6519H31.4675V22H21.2816C18.64 22 16.4906 19.8515 16.4906 17.2098V15.1124C16.4906 12.4716 18.64 10.3222 21.2816 10.3222H28.3906ZM28.3914 12.6704H21.2825V12.6712C19.9868 12.6712 18.9243 13.6851 18.8454 14.9615H28.3914C29.0229 14.9615 29.537 14.4474 29.537 13.8159C29.537 13.1844 29.0229 12.6704 28.3914 12.6704Z" fill="white"/>
</svg>
