<svg width="76" height="32" viewBox="0 0 76 32" fill="none" xmlns="http://www.w3.org/2000/svg">
<rect width="76" height="32" fill="#003CFF"/>
<path d="M62.1365 9.5514H60.3828H59.8521L54.6233 0L48.1484 9.5514H42.0474H35.9509H0V21.9673H35.9325H39.906L33.5834 32H35.0787L54.0326 16.826L57.8676 21.9673H60.3828H62.1181H76V9.5514H62.1365Z" fill="#EE3302"/>
<path d="M14.3758 15.4516V11.9346H17.4678V15.4516C17.4678 16.3262 17.7678 17.2055 19.2446 17.2055H19.2815C20.7214 17.2055 21.0122 16.3309 21.0122 15.4516V11.9346H24.1042V15.4516C24.1042 16.9556 23.6842 19.7044 19.5446 19.7044H18.8892C14.5927 19.7044 14.3758 16.9556 14.3758 15.4516Z" fill="white"/>
<path d="M28.8761 11.9254V17.2009H33.2834V19.5887H25.641V11.9254H28.8761Z" fill="white"/>
<path d="M66.1147 15.4701V19.5887H62.9535V11.9254H66.2347L69.8806 15.8496V11.9254H73.0419V19.5887H69.9544L66.1147 15.4701Z" fill="white"/>
<path d="M41.452 15.5257L44.9594 11.9254H40.8659L37.8384 15.0583V11.9254H34.3449V19.5841H37.8384V16.3772L40.6813 19.5841H44.8948L41.4289 15.5534L41.452 15.5257Z" fill="white"/>
<path d="M9.88534 11.9254L7.69781 17.5803L5.52415 11.9254H2.03058L5.08573 19.5841H10.3561L13.5035 11.9254H9.88534Z" fill="white"/>
<path d="M54.4618 4.88217L40.709 24.3552C40.6444 24.4431 40.709 24.5681 40.8198 24.5681C40.8567 24.5681 40.889 24.5588 40.9167 24.531L54.1618 12.8324L58.9845 19.5888H61.8735L54.4618 4.88217Z" fill="white"/>
<path d="M48.1623 25.8499H53.308C54.9233 25.8499 55.4955 26.4515 55.4955 27.2567C55.4955 28.1452 54.6095 28.5293 54.028 28.5709C54.5679 28.6542 55.2971 29.0059 55.2971 29.9268C55.2971 30.9542 54.711 31.9676 52.4865 31.9676H46.967L48.1531 25.8545L48.1623 25.8499ZM49.8883 29.5288L49.7268 30.3711H52.002C52.5881 30.3711 52.6942 30.1073 52.6942 29.9222C52.6942 29.7371 52.6204 29.5288 52.1081 29.5288H49.8975H49.8883ZM50.3037 27.3724L50.156 28.1359H52.242C52.745 28.1359 52.8742 27.9462 52.8742 27.7241C52.8742 27.4696 52.7173 27.3724 52.3343 27.3724H50.3037Z" fill="white"/>
<path d="M63.078 25.8498L62.7688 27.3862H58.9937L58.8645 28.0711H62.5288L62.215 29.6398H58.5599L58.4122 30.408H62.2427L61.9427 31.9629H55.6525L56.8385 25.8498H63.078Z" fill="white"/>
<path d="M65.9024 27.6731H63.4657L63.8164 25.8498H71.122L70.7713 27.6731H68.3345L67.5085 31.9629H65.0625L65.9024 27.6731Z" fill="white"/>
</svg>
