<svg width="162" height="80" viewBox="0 0 162 80" fill="none" xmlns="http://www.w3.org/2000/svg">
<rect width="162" height="80" fill="#003CFF"/>
<path d="M122.286 29.2934H119.286H118.379L109.435 13L98.3591 29.2934H87.9231H77.495H16V50.4733H77.4635H84.2603L73.4454 67.5877H76.003L108.424 41.7029L114.984 50.4733H119.286H122.255H146V29.2934H122.286Z" fill="#EE3302"/>
<path d="M40.5901 39.3584V33.3589H45.8792V39.3584C45.8792 40.8504 46.3923 42.3502 48.9184 42.3502H48.9816C51.4445 42.3502 51.9419 40.8583 51.9419 39.3584V33.3589H57.2309V39.3584C57.2309 41.924 56.5125 46.6131 49.4315 46.6131H48.3106C40.9612 46.6131 40.5901 41.924 40.5901 39.3584Z" fill="white"/>
<path d="M65.3934 33.3431V42.3424H72.9322V46.4157H59.8596V33.3431H65.3934Z" fill="white"/>
<path d="M129.091 39.39V46.4157H123.683V33.3431H129.296L135.532 40.0373V33.3431H140.94V46.4157H135.659L129.091 39.39Z" fill="white"/>
<path d="M86.9047 39.4847L92.9042 33.3431H85.9022L80.7236 38.6874V33.3431H74.7478V46.4078H80.7236V40.9372L85.5864 46.4078H92.7937L86.8652 39.5321L86.9047 39.4847Z" fill="white"/>
<path d="M32.9091 33.3431L29.1673 42.9897L25.4491 33.3431H19.4733L24.6992 46.4078H33.7143L39.098 33.3431H32.9091Z" fill="white"/>
<path d="M109.158 21.3284L85.6338 54.5467C85.5233 54.6967 85.6338 54.9099 85.8232 54.9099C85.8864 54.9099 85.9416 54.8941 85.989 54.8467L108.645 34.8904L116.894 46.4158H121.836L109.158 21.3284Z" fill="white"/>
<path d="M98.3827 57.0964H107.185C109.948 57.0964 110.926 58.1226 110.926 59.4962C110.926 61.0119 109.411 61.6671 108.416 61.7381C109.34 61.8802 110.587 62.4801 110.587 64.0511C110.587 65.8036 109.584 67.5324 105.78 67.5324H96.3382L98.367 57.1043L98.3827 57.0964ZM101.335 63.3722L101.059 64.8089H104.951C105.953 64.8089 106.135 64.359 106.135 64.0432C106.135 63.7274 106.008 63.3722 105.132 63.3722H101.351H101.335ZM102.046 59.6935L101.793 60.9961H105.361C106.222 60.9961 106.443 60.6724 106.443 60.2935C106.443 59.8593 106.174 59.6935 105.519 59.6935H102.046Z" fill="white"/>
<path d="M123.897 57.0963L123.368 59.7172H116.91L116.689 60.8855H122.957L122.42 63.5616H116.168L115.916 64.872H122.468L121.955 67.5244H111.195L113.224 57.0963H123.897Z" fill="white"/>
<path d="M128.728 60.2066H124.56L125.16 57.0963H137.656L137.056 60.2066H132.888L131.475 67.5244H127.291L128.728 60.2066Z" fill="white"/>
</svg>
